<mxfile host="app.diagrams.net" agent="Mozilla/5.0 (Windows NT 10.0; Win64; x64) AppleWebKit/537.36 (KHTML, like Gecko) Chrome/130.0.0.0 Safari/537.36" version="24.8.1">
  <diagram name="Page-1" id="YrT-D1yvfj5ylQMJRqkc">
    <mxGraphModel dx="1259" dy="655" grid="1" gridSize="10" guides="1" tooltips="1" connect="1" arrows="1" fold="1" page="1" pageScale="1" pageWidth="850" pageHeight="1100" math="0" shadow="0">
      <root>
        <mxCell id="0" />
        <mxCell id="1" parent="0" />
        <mxCell id="CcNySvByQFx2zoQpPsER-2" style="edgeStyle=orthogonalEdgeStyle;rounded=0;orthogonalLoop=1;jettySize=auto;html=1;" edge="1" parent="1" source="CcNySvByQFx2zoQpPsER-1" target="CcNySvByQFx2zoQpPsER-5">
          <mxGeometry relative="1" as="geometry">
            <mxPoint x="170" y="210" as="targetPoint" />
          </mxGeometry>
        </mxCell>
        <mxCell id="CcNySvByQFx2zoQpPsER-3" style="rounded=0;orthogonalLoop=1;jettySize=auto;html=1;" edge="1" parent="1" target="CcNySvByQFx2zoQpPsER-4">
          <mxGeometry relative="1" as="geometry">
            <mxPoint x="160" y="130" as="targetPoint" />
            <mxPoint x="90" y="190" as="sourcePoint" />
          </mxGeometry>
        </mxCell>
        <mxCell id="CcNySvByQFx2zoQpPsER-6" style="rounded=0;orthogonalLoop=1;jettySize=auto;html=1;" edge="1" parent="1" source="CcNySvByQFx2zoQpPsER-1" target="CcNySvByQFx2zoQpPsER-7">
          <mxGeometry relative="1" as="geometry">
            <mxPoint x="160" y="280" as="targetPoint" />
          </mxGeometry>
        </mxCell>
        <mxCell id="CcNySvByQFx2zoQpPsER-8" style="rounded=0;orthogonalLoop=1;jettySize=auto;html=1;" edge="1" parent="1" source="CcNySvByQFx2zoQpPsER-1" target="CcNySvByQFx2zoQpPsER-9">
          <mxGeometry relative="1" as="geometry">
            <mxPoint x="140" y="320" as="targetPoint" />
          </mxGeometry>
        </mxCell>
        <mxCell id="CcNySvByQFx2zoQpPsER-10" style="rounded=0;orthogonalLoop=1;jettySize=auto;html=1;" edge="1" parent="1" source="CcNySvByQFx2zoQpPsER-1" target="CcNySvByQFx2zoQpPsER-11">
          <mxGeometry relative="1" as="geometry">
            <mxPoint x="100" y="370" as="targetPoint" />
          </mxGeometry>
        </mxCell>
        <mxCell id="CcNySvByQFx2zoQpPsER-1" value="Customer" style="shape=umlActor;verticalLabelPosition=bottom;verticalAlign=top;html=1;outlineConnect=0;" vertex="1" parent="1">
          <mxGeometry x="60" y="180" width="30" height="60" as="geometry" />
        </mxCell>
        <mxCell id="CcNySvByQFx2zoQpPsER-21" style="rounded=0;orthogonalLoop=1;jettySize=auto;html=1;dashed=1;endArrow=open;endFill=0;" edge="1" parent="1" source="CcNySvByQFx2zoQpPsER-4" target="CcNySvByQFx2zoQpPsER-22">
          <mxGeometry relative="1" as="geometry">
            <mxPoint x="280" y="80" as="targetPoint" />
          </mxGeometry>
        </mxCell>
        <mxCell id="CcNySvByQFx2zoQpPsER-23" style="rounded=0;orthogonalLoop=1;jettySize=auto;html=1;dashed=1;endArrow=open;endFill=0;" edge="1" parent="1" source="CcNySvByQFx2zoQpPsER-4" target="CcNySvByQFx2zoQpPsER-24">
          <mxGeometry relative="1" as="geometry">
            <mxPoint x="280" y="110" as="targetPoint" />
          </mxGeometry>
        </mxCell>
        <mxCell id="CcNySvByQFx2zoQpPsER-4" value="Login" style="ellipse;whiteSpace=wrap;html=1;" vertex="1" parent="1">
          <mxGeometry x="150" y="120" width="70" height="40" as="geometry" />
        </mxCell>
        <mxCell id="CcNySvByQFx2zoQpPsER-31" style="rounded=0;orthogonalLoop=1;jettySize=auto;html=1;dashed=1;endArrow=open;endFill=0;" edge="1" parent="1" source="CcNySvByQFx2zoQpPsER-5" target="CcNySvByQFx2zoQpPsER-32">
          <mxGeometry relative="1" as="geometry">
            <mxPoint x="310" y="190" as="targetPoint" />
          </mxGeometry>
        </mxCell>
        <mxCell id="CcNySvByQFx2zoQpPsER-36" style="rounded=0;orthogonalLoop=1;jettySize=auto;html=1;dashed=1;endArrow=open;endFill=0;" edge="1" parent="1" source="CcNySvByQFx2zoQpPsER-5" target="CcNySvByQFx2zoQpPsER-37">
          <mxGeometry relative="1" as="geometry">
            <mxPoint x="300" y="180" as="targetPoint" />
          </mxGeometry>
        </mxCell>
        <mxCell id="CcNySvByQFx2zoQpPsER-5" value="Search car" style="ellipse;whiteSpace=wrap;html=1;" vertex="1" parent="1">
          <mxGeometry x="170" y="190" width="70" height="40" as="geometry" />
        </mxCell>
        <mxCell id="CcNySvByQFx2zoQpPsER-7" value="View car details" style="ellipse;whiteSpace=wrap;html=1;" vertex="1" parent="1">
          <mxGeometry x="160" y="260" width="80" height="40" as="geometry" />
        </mxCell>
        <mxCell id="CcNySvByQFx2zoQpPsER-9" value="Book car" style="ellipse;whiteSpace=wrap;html=1;" vertex="1" parent="1">
          <mxGeometry x="240" y="410" width="80" height="30" as="geometry" />
        </mxCell>
        <mxCell id="CcNySvByQFx2zoQpPsER-56" style="rounded=0;orthogonalLoop=1;jettySize=auto;html=1;dashed=1;endArrow=open;endFill=0;" edge="1" parent="1" source="CcNySvByQFx2zoQpPsER-11" target="CcNySvByQFx2zoQpPsER-57">
          <mxGeometry relative="1" as="geometry">
            <mxPoint x="170" y="510" as="targetPoint" />
          </mxGeometry>
        </mxCell>
        <mxCell id="CcNySvByQFx2zoQpPsER-11" value="Make payment" style="ellipse;whiteSpace=wrap;html=1;" vertex="1" parent="1">
          <mxGeometry x="110" y="410" width="70" height="40" as="geometry" />
        </mxCell>
        <mxCell id="CcNySvByQFx2zoQpPsER-13" style="rounded=0;orthogonalLoop=1;jettySize=auto;html=1;endArrow=none;endFill=0;" edge="1" parent="1" source="CcNySvByQFx2zoQpPsER-12" target="CcNySvByQFx2zoQpPsER-14">
          <mxGeometry relative="1" as="geometry">
            <mxPoint x="470" y="160" as="targetPoint" />
          </mxGeometry>
        </mxCell>
        <mxCell id="CcNySvByQFx2zoQpPsER-15" style="rounded=0;orthogonalLoop=1;jettySize=auto;html=1;startArrow=none;startFill=0;endArrow=none;endFill=0;" edge="1" parent="1" source="CcNySvByQFx2zoQpPsER-12" target="CcNySvByQFx2zoQpPsER-16">
          <mxGeometry relative="1" as="geometry">
            <mxPoint x="460" y="220" as="targetPoint" />
          </mxGeometry>
        </mxCell>
        <mxCell id="CcNySvByQFx2zoQpPsER-17" style="rounded=0;orthogonalLoop=1;jettySize=auto;html=1;endArrow=none;endFill=0;" edge="1" parent="1" source="CcNySvByQFx2zoQpPsER-12" target="CcNySvByQFx2zoQpPsER-18">
          <mxGeometry relative="1" as="geometry">
            <mxPoint x="420" y="330" as="targetPoint" />
          </mxGeometry>
        </mxCell>
        <mxCell id="CcNySvByQFx2zoQpPsER-19" style="rounded=0;orthogonalLoop=1;jettySize=auto;html=1;endArrow=none;endFill=0;" edge="1" parent="1" source="CcNySvByQFx2zoQpPsER-12" target="CcNySvByQFx2zoQpPsER-20">
          <mxGeometry relative="1" as="geometry">
            <mxPoint x="490" y="350" as="targetPoint" />
          </mxGeometry>
        </mxCell>
        <mxCell id="CcNySvByQFx2zoQpPsER-12" value="Admin" style="shape=umlActor;verticalLabelPosition=bottom;verticalAlign=top;html=1;outlineConnect=0;" vertex="1" parent="1">
          <mxGeometry x="710" y="190" width="30" height="60" as="geometry" />
        </mxCell>
        <mxCell id="CcNySvByQFx2zoQpPsER-47" style="rounded=0;orthogonalLoop=1;jettySize=auto;html=1;dashed=1;endArrow=open;endFill=0;" edge="1" parent="1" source="CcNySvByQFx2zoQpPsER-14" target="CcNySvByQFx2zoQpPsER-48">
          <mxGeometry relative="1" as="geometry">
            <mxPoint x="650" y="70" as="targetPoint" />
          </mxGeometry>
        </mxCell>
        <mxCell id="CcNySvByQFx2zoQpPsER-49" style="rounded=0;orthogonalLoop=1;jettySize=auto;html=1;dashed=1;endArrow=open;endFill=0;" edge="1" parent="1" source="CcNySvByQFx2zoQpPsER-14" target="CcNySvByQFx2zoQpPsER-50">
          <mxGeometry relative="1" as="geometry">
            <mxPoint x="580" y="90" as="targetPoint" />
          </mxGeometry>
        </mxCell>
        <mxCell id="CcNySvByQFx2zoQpPsER-51" style="rounded=0;orthogonalLoop=1;jettySize=auto;html=1;dashed=1;endArrow=open;endFill=0;" edge="1" parent="1" source="CcNySvByQFx2zoQpPsER-14" target="CcNySvByQFx2zoQpPsER-52">
          <mxGeometry relative="1" as="geometry">
            <mxPoint x="540" y="160" as="targetPoint" />
          </mxGeometry>
        </mxCell>
        <mxCell id="CcNySvByQFx2zoQpPsER-14" value="Manage car" style="ellipse;whiteSpace=wrap;html=1;" vertex="1" parent="1">
          <mxGeometry x="590" y="110" width="90" height="50" as="geometry" />
        </mxCell>
        <mxCell id="CcNySvByQFx2zoQpPsER-44" style="rounded=0;orthogonalLoop=1;jettySize=auto;html=1;dashed=1;endArrow=open;endFill=0;" edge="1" parent="1" source="CcNySvByQFx2zoQpPsER-16" target="CcNySvByQFx2zoQpPsER-45">
          <mxGeometry relative="1" as="geometry">
            <mxPoint x="480" y="410.0000000000001" as="targetPoint" />
          </mxGeometry>
        </mxCell>
        <mxCell id="CcNySvByQFx2zoQpPsER-16" value="Manage booking" style="ellipse;whiteSpace=wrap;html=1;" vertex="1" parent="1">
          <mxGeometry x="480" y="240" width="90" height="50" as="geometry" />
        </mxCell>
        <mxCell id="CcNySvByQFx2zoQpPsER-18" value="View statistic report" style="ellipse;whiteSpace=wrap;html=1;" vertex="1" parent="1">
          <mxGeometry x="545" y="320" width="95" height="50" as="geometry" />
        </mxCell>
        <mxCell id="CcNySvByQFx2zoQpPsER-20" value="Login" style="ellipse;whiteSpace=wrap;html=1;" vertex="1" parent="1">
          <mxGeometry x="680" y="340" width="70" height="40" as="geometry" />
        </mxCell>
        <mxCell id="CcNySvByQFx2zoQpPsER-22" value="Register Account" style="ellipse;whiteSpace=wrap;html=1;" vertex="1" parent="1">
          <mxGeometry x="170" y="10" width="110" height="50" as="geometry" />
        </mxCell>
        <mxCell id="CcNySvByQFx2zoQpPsER-24" value="Log out" style="ellipse;whiteSpace=wrap;html=1;" vertex="1" parent="1">
          <mxGeometry x="270" y="70" width="80" height="40" as="geometry" />
        </mxCell>
        <mxCell id="CcNySvByQFx2zoQpPsER-26" value="&lt;font style=&quot;font-size: 6px;&quot;&gt;&amp;lt;&amp;lt; include &amp;gt;&amp;gt;&lt;/font&gt;" style="text;html=1;align=center;verticalAlign=middle;whiteSpace=wrap;rounded=0;" vertex="1" parent="1">
          <mxGeometry x="360" y="30" width="50" height="20" as="geometry" />
        </mxCell>
        <mxCell id="CcNySvByQFx2zoQpPsER-28" value="&lt;font style=&quot;font-size: 6px;&quot;&gt;&amp;lt;&amp;lt; extend &amp;gt;&amp;gt;&lt;/font&gt;" style="text;html=1;align=center;verticalAlign=middle;whiteSpace=wrap;rounded=0;" vertex="1" parent="1">
          <mxGeometry x="425" y="25" width="45" height="30" as="geometry" />
        </mxCell>
        <mxCell id="CcNySvByQFx2zoQpPsER-29" value="&lt;font style=&quot;font-size: 6px;&quot;&gt;&amp;lt;&amp;lt; include &amp;gt;&amp;gt;&lt;/font&gt;" style="text;html=1;align=center;verticalAlign=middle;whiteSpace=wrap;rounded=0;" vertex="1" parent="1">
          <mxGeometry x="150" y="80" width="50" height="20" as="geometry" />
        </mxCell>
        <mxCell id="CcNySvByQFx2zoQpPsER-30" value="&lt;font style=&quot;font-size: 6px;&quot;&gt;&amp;lt;&amp;lt; extend &amp;gt;&amp;gt;&lt;/font&gt;" style="text;html=1;align=center;verticalAlign=middle;whiteSpace=wrap;rounded=0;" vertex="1" parent="1">
          <mxGeometry x="220" y="90" width="45" height="30" as="geometry" />
        </mxCell>
        <mxCell id="CcNySvByQFx2zoQpPsER-32" value="Filter car" style="ellipse;whiteSpace=wrap;html=1;" vertex="1" parent="1">
          <mxGeometry x="330" y="220" width="80" height="40" as="geometry" />
        </mxCell>
        <mxCell id="CcNySvByQFx2zoQpPsER-34" value="Add car to booking list" style="ellipse;whiteSpace=wrap;html=1;" vertex="1" parent="1">
          <mxGeometry x="300" y="285" width="100" height="45" as="geometry" />
        </mxCell>
        <mxCell id="CcNySvByQFx2zoQpPsER-35" style="rounded=0;orthogonalLoop=1;jettySize=auto;html=1;entryX=0.018;entryY=0.609;entryDx=0;entryDy=0;entryPerimeter=0;dashed=1;endArrow=open;endFill=0;" edge="1" parent="1" source="CcNySvByQFx2zoQpPsER-7" target="CcNySvByQFx2zoQpPsER-34">
          <mxGeometry relative="1" as="geometry" />
        </mxCell>
        <mxCell id="CcNySvByQFx2zoQpPsER-37" value="select location and dates" style="ellipse;whiteSpace=wrap;html=1;" vertex="1" parent="1">
          <mxGeometry x="310" y="150" width="100" height="40" as="geometry" />
        </mxCell>
        <mxCell id="CcNySvByQFx2zoQpPsER-38" value="&lt;font style=&quot;font-size: 6px;&quot;&gt;&amp;lt;&amp;lt; include &amp;gt;&amp;gt;&lt;/font&gt;" style="text;html=1;align=center;verticalAlign=middle;whiteSpace=wrap;rounded=0;" vertex="1" parent="1">
          <mxGeometry x="250" y="170" width="50" height="20" as="geometry" />
        </mxCell>
        <mxCell id="CcNySvByQFx2zoQpPsER-39" value="&lt;font style=&quot;font-size: 6px;&quot;&gt;&amp;lt;&amp;lt; extend &amp;gt;&amp;gt;&lt;/font&gt;" style="text;html=1;align=center;verticalAlign=middle;whiteSpace=wrap;rounded=0;" vertex="1" parent="1">
          <mxGeometry x="270" y="200" width="45" height="30" as="geometry" />
        </mxCell>
        <mxCell id="CcNySvByQFx2zoQpPsER-40" value="&lt;font style=&quot;font-size: 6px;&quot;&gt;&amp;lt;&amp;lt; include &amp;gt;&amp;gt;&lt;/font&gt;" style="text;html=1;align=center;verticalAlign=middle;whiteSpace=wrap;rounded=0;" vertex="1" parent="1">
          <mxGeometry x="250" y="280" width="50" height="20" as="geometry" />
        </mxCell>
        <mxCell id="CcNySvByQFx2zoQpPsER-41" value="Log out" style="ellipse;whiteSpace=wrap;html=1;" vertex="1" parent="1">
          <mxGeometry x="635" y="430" width="80" height="40" as="geometry" />
        </mxCell>
        <mxCell id="CcNySvByQFx2zoQpPsER-42" style="rounded=0;orthogonalLoop=1;jettySize=auto;html=1;entryX=0.5;entryY=0;entryDx=0;entryDy=0;dashed=1;endArrow=open;endFill=0;" edge="1" parent="1" source="CcNySvByQFx2zoQpPsER-20" target="CcNySvByQFx2zoQpPsER-41">
          <mxGeometry relative="1" as="geometry">
            <mxPoint x="700" y="540" as="targetPoint" />
          </mxGeometry>
        </mxCell>
        <mxCell id="CcNySvByQFx2zoQpPsER-43" value="&lt;font style=&quot;font-size: 6px;&quot;&gt;&amp;lt;&amp;lt; extend &amp;gt;&amp;gt;&lt;/font&gt;" style="text;html=1;align=center;verticalAlign=middle;whiteSpace=wrap;rounded=0;" vertex="1" parent="1">
          <mxGeometry x="685" y="390" width="45" height="30" as="geometry" />
        </mxCell>
        <mxCell id="CcNySvByQFx2zoQpPsER-46" style="rounded=0;orthogonalLoop=1;jettySize=auto;html=1;entryX=1;entryY=0.5;entryDx=0;entryDy=0;endArrow=none;endFill=0;" edge="1" parent="1" source="CcNySvByQFx2zoQpPsER-45" target="CcNySvByQFx2zoQpPsER-9">
          <mxGeometry relative="1" as="geometry" />
        </mxCell>
        <mxCell id="CcNySvByQFx2zoQpPsER-45" value="accept/reject booking request" style="ellipse;whiteSpace=wrap;html=1;" vertex="1" parent="1">
          <mxGeometry x="397.5" y="400" width="100" height="50" as="geometry" />
        </mxCell>
        <mxCell id="CcNySvByQFx2zoQpPsER-48" value="Add car" style="ellipse;whiteSpace=wrap;html=1;" vertex="1" parent="1">
          <mxGeometry x="640" y="25" width="90" height="50" as="geometry" />
        </mxCell>
        <mxCell id="CcNySvByQFx2zoQpPsER-50" value="Edit car information" style="ellipse;whiteSpace=wrap;html=1;" vertex="1" parent="1">
          <mxGeometry x="490" y="40" width="100" height="50" as="geometry" />
        </mxCell>
        <mxCell id="CcNySvByQFx2zoQpPsER-52" value="Remove car" style="ellipse;whiteSpace=wrap;html=1;" vertex="1" parent="1">
          <mxGeometry x="450" y="120" width="90" height="60" as="geometry" />
        </mxCell>
        <mxCell id="CcNySvByQFx2zoQpPsER-53" value="&lt;font style=&quot;font-size: 6px;&quot;&gt;&amp;lt;&amp;lt; include &amp;gt;&amp;gt;&lt;/font&gt;" style="text;html=1;align=center;verticalAlign=middle;whiteSpace=wrap;rounded=0;" vertex="1" parent="1">
          <mxGeometry x="540" y="120" width="50" height="20" as="geometry" />
        </mxCell>
        <mxCell id="CcNySvByQFx2zoQpPsER-54" value="&lt;font style=&quot;font-size: 6px;&quot;&gt;&amp;lt;&amp;lt; include &amp;gt;&amp;gt;&lt;/font&gt;" style="text;html=1;align=center;verticalAlign=middle;whiteSpace=wrap;rounded=0;" vertex="1" parent="1">
          <mxGeometry x="580" y="80" width="50" height="20" as="geometry" />
        </mxCell>
        <mxCell id="CcNySvByQFx2zoQpPsER-55" value="&lt;font style=&quot;font-size: 6px;&quot;&gt;&amp;lt;&amp;lt; include &amp;gt;&amp;gt;&lt;/font&gt;" style="text;html=1;align=center;verticalAlign=middle;whiteSpace=wrap;rounded=0;" vertex="1" parent="1">
          <mxGeometry x="650" y="90" width="50" height="20" as="geometry" />
        </mxCell>
        <mxCell id="CcNySvByQFx2zoQpPsER-59" style="rounded=0;orthogonalLoop=1;jettySize=auto;html=1;dashed=1;endArrow=open;endFill=0;" edge="1" parent="1" source="CcNySvByQFx2zoQpPsER-57" target="CcNySvByQFx2zoQpPsER-62">
          <mxGeometry relative="1" as="geometry">
            <mxPoint x="310" y="554.9999999999999" as="targetPoint" />
          </mxGeometry>
        </mxCell>
        <mxCell id="CcNySvByQFx2zoQpPsER-60" style="rounded=0;orthogonalLoop=1;jettySize=auto;html=1;dashed=1;endArrow=open;endFill=0;" edge="1" parent="1" source="CcNySvByQFx2zoQpPsER-57" target="CcNySvByQFx2zoQpPsER-61">
          <mxGeometry relative="1" as="geometry">
            <mxPoint x="260" y="640" as="targetPoint" />
          </mxGeometry>
        </mxCell>
        <mxCell id="CcNySvByQFx2zoQpPsER-57" value="Select payment method" style="ellipse;whiteSpace=wrap;html=1;" vertex="1" parent="1">
          <mxGeometry x="140" y="530" width="110" height="50" as="geometry" />
        </mxCell>
        <mxCell id="CcNySvByQFx2zoQpPsER-58" value="&lt;font style=&quot;font-size: 6px;&quot;&gt;&amp;lt;&amp;lt; include &amp;gt;&amp;gt;&lt;/font&gt;" style="text;html=1;align=center;verticalAlign=middle;whiteSpace=wrap;rounded=0;" vertex="1" parent="1">
          <mxGeometry x="160" y="470" width="50" height="20" as="geometry" />
        </mxCell>
        <mxCell id="CcNySvByQFx2zoQpPsER-61" value="Debit/Credit Card" style="ellipse;whiteSpace=wrap;html=1;" vertex="1" parent="1">
          <mxGeometry x="245" y="630" width="105" height="60" as="geometry" />
        </mxCell>
        <mxCell id="CcNySvByQFx2zoQpPsER-62" value="QR payment" style="ellipse;whiteSpace=wrap;html=1;" vertex="1" parent="1">
          <mxGeometry x="310" y="535" width="100" height="45" as="geometry" />
        </mxCell>
        <mxCell id="CcNySvByQFx2zoQpPsER-63" value="&lt;font style=&quot;font-size: 6px;&quot;&gt;&amp;lt;&amp;lt; extend &amp;gt;&amp;gt;&lt;/font&gt;" style="text;html=1;align=center;verticalAlign=middle;whiteSpace=wrap;rounded=0;" vertex="1" parent="1">
          <mxGeometry x="240" y="590" width="45" height="30" as="geometry" />
        </mxCell>
        <mxCell id="CcNySvByQFx2zoQpPsER-64" value="&lt;font style=&quot;font-size: 6px;&quot;&gt;&amp;lt;&amp;lt; extend &amp;gt;&amp;gt;&lt;/font&gt;" style="text;html=1;align=center;verticalAlign=middle;whiteSpace=wrap;rounded=0;" vertex="1" parent="1">
          <mxGeometry x="252.5" y="535" width="45" height="30" as="geometry" />
        </mxCell>
      </root>
    </mxGraphModel>
  </diagram>
</mxfile>
